<?xml version="1.0" standalone="no"?>
<!DOCTYPE svg PUBLIC "-//W3C//DTD SVG 20010904//EN"
 "http://www.w3.org/TR/2001/REC-SVG-20010904/DTD/svg10.dtd">
<svg version="1.0" xmlns="http://www.w3.org/2000/svg"
 width="300.000000pt" height="229.000000pt" viewBox="0 0 300.000000 229.000000"
 preserveAspectRatio="xMidYMid meet">
<metadata>
Created by potrace 1.10, written by Peter Selinger 2001-2011
</metadata>
<g transform="translate(0.000000,229.000000) scale(0.100000,-0.100000)"
fill="#F5F5DC" stroke="none">
<path d="M1452 2110 c2 -8 -12 -17 -36 -22 -21 -4 -50 -14 -65 -22 -14 -7 -45
-22 -68 -32 -60 -26 -54 -36 7 -13 28 10 58 19 68 18 13 0 14 -2 2 -6 -8 -3
-28 -11 -45 -18 -16 -7 -43 -18 -60 -23 l-30 -10 28 -7 c16 -4 33 -3 41 4 7 6
16 8 19 5 7 -8 67 18 67 29 0 4 16 5 35 1 22 -4 35 -2 35 4 0 6 -17 12 -37 14
l-38 3 34 18 c49 24 114 22 177 -8 29 -14 55 -29 59 -34 3 -6 30 -19 60 -30
30 -11 67 -34 83 -51 16 -16 34 -30 40 -30 5 0 13 -8 16 -17 6 -15 8 -15 16
-3 8 12 10 10 10 -7 0 -13 5 -23 11 -23 6 0 9 7 5 15 -3 9 0 15 10 15 12 0 15
-6 10 -24 -7 -28 11 -46 20 -22 9 23 24 20 24 -5 0 -11 7 -27 15 -35 20 -20
19 -34 -2 -35 -13 0 -14 -2 -4 -6 8 -3 20 2 27 12 14 19 38 11 30 -10 -3 -8 7
-19 24 -27 29 -12 46 -43 30 -53 -5 -3 -15 3 -22 13 -17 24 -49 37 -41 16 3
-7 9 -14 15 -14 12 0 38 -26 38 -38 0 -6 14 -13 30 -17 29 -6 40 -20 21 -27
-5 -2 -3 -21 5 -43 24 -69 28 -167 9 -241 -9 -37 -15 -75 -12 -85 3 -10 -1
-20 -9 -23 -9 -3 -14 2 -14 14 0 11 -5 20 -11 20 -7 0 -8 -7 -3 -17 9 -21 10
-71 1 -80 -4 -3 -13 -1 -20 5 -8 7 -17 9 -20 6 -3 -3 -9 11 -12 32 -10 56 -25
98 -46 125 -28 37 -24 5 15 -109 19 -55 37 -123 41 -151 4 -28 12 -49 18 -48
16 3 27 -64 17 -102 -5 -19 -7 -37 -4 -40 2 -3 7 5 11 17 3 12 13 22 22 22 27
0 41 21 41 62 0 31 -4 38 -19 38 -10 0 -24 7 -31 15 -7 8 -16 12 -21 9 -5 -3
-9 14 -9 36 0 33 4 43 20 47 11 3 20 8 20 12 0 3 9 17 19 30 l19 25 21 -35
c14 -22 22 -53 23 -89 1 -54 2 -54 6 -10 4 53 -12 116 -33 124 -19 7 -19 31 1
103 23 80 23 234 1 270 -4 7 -5 24 -1 38 5 18 1 30 -10 38 -10 7 -16 17 -15
22 7 24 -59 140 -80 140 -4 0 -28 22 -54 48 -51 51 -103 87 -127 87 -8 0 -27
10 -40 23 -62 54 -111 86 -195 127 -92 45 -189 66 -183 40z"/>
<path d="M1450 2049 c0 -5 11 -9 24 -9 13 0 33 -3 43 -7 16 -6 17 -5 2 9 -16
16 -69 22 -69 7z"/>
<path d="M1192 1982 c-10 -10 -26 -21 -34 -25 -22 -8 -71 -74 -64 -86 3 -5 19
4 35 20 27 26 36 29 95 29 35 0 68 5 71 10 3 6 -3 10 -14 10 -11 0 -23 5 -26
10 -9 15 -31 12 -50 -6 -9 -9 -18 -14 -21 -12 -9 9 8 38 22 38 8 0 14 7 14 15
0 20 -6 19 -28 -3z"/>
<path d="M1343 1933 c4 -3 2 -12 -5 -20 -15 -18 -9 -20 32 -12 24 4 28 7 11 8
-16 1 -21 5 -17 16 3 10 -1 15 -11 15 -9 0 -13 -3 -10 -7z"/>
<path d="M1282 1905 c-7 -8 -9 -15 -5 -15 15 0 -79 -50 -96 -51 -11 0 -12 -2
-3 -6 9 -3 1 -16 -25 -40 -38 -34 -38 -34 -9 -27 19 5 31 2 37 -7 7 -11 9 -11
9 2 0 9 9 26 20 39 11 13 20 29 20 36 0 7 20 22 45 33 26 11 45 27 45 35 0 20
-21 20 -38 1z"/>
<path d="M1405 1890 c-4 -6 5 -10 22 -10 15 0 39 -3 52 -7 22 -5 23 -4 11 8
-16 18 -76 24 -85 9z"/>
<path d="M1325 1863 c-54 -22 -95 -51 -95 -69 0 -19 4 -18 68 12 36 17 51 29
43 34 -9 5 -4 9 13 14 14 3 26 11 26 16 0 13 -7 12 -55 -7z"/>
<path d="M1067 1827 c-20 -16 -28 -32 -29 -55 -1 -25 -14 -48 -55 -94 -30 -33
-52 -63 -49 -65 3 -3 12 0 21 7 21 17 21 -8 -1 -38 -11 -16 -13 -27 -6 -35 6
-7 11 -48 11 -92 0 -44 7 -105 14 -135 24 -100 68 -230 76 -225 5 2 12 -14 15
-38 6 -37 4 -44 -20 -65 -24 -21 -26 -27 -18 -65 11 -51 44 -66 42 -20 0 26
18 139 43 263 6 30 17 70 25 88 12 29 12 34 -5 51 -19 19 -20 19 -19 -19 0
-49 -21 -140 -34 -140 -5 0 -7 4 -3 9 3 6 -3 14 -12 20 -10 5 -15 13 -11 17 5
4 3 13 -3 21 -9 9 -8 13 0 13 6 0 10 12 10 28 -1 17 -3 20 -6 9 -2 -9 -9 -15
-14 -11 -5 3 -7 9 -4 14 3 5 -1 26 -10 46 -8 20 -15 51 -15 68 -1 29 -1 30
-15 12 -13 -17 -17 -18 -28 -6 -6 7 -7 10 -2 7 6 -2 19 7 29 21 11 14 14 22 7
18 -10 -6 -12 4 -10 42 2 31 -2 57 -11 67 -10 12 -11 18 -1 28 10 9 11 8 5 -7
-7 -18 -6 -18 14 0 26 22 27 25 7 18 -21 -8 -19 16 3 33 9 8 12 12 6 9 -7 -3
-15 1 -18 9 -3 10 8 30 28 52 30 33 36 36 50 24 13 -11 20 -11 28 -3 9 9 8 12
-6 12 -12 0 -16 5 -12 16 3 9 6 19 6 24 0 5 9 12 20 15 20 6 46 43 36 52 -2 3
-15 -5 -28 -17 -13 -12 -32 -26 -43 -31 -11 -6 -5 3 13 19 53 47 35 74 -21 29z"/>
<path d="M1305 1772 c-27 -10 -63 -24 -79 -33 -25 -14 -26 -17 -10 -20 11 -3
39 1 64 7 25 7 38 13 30 14 -8 2 12 8 44 14 33 6 61 17 64 24 5 17 -52 14
-113 -6z"/>
<path d="M1883 1746 c-31 -15 -38 -36 -10 -30 12 2 23 8 25 14 2 6 8 8 12 5 5
-3 11 -1 14 4 9 14 -17 18 -41 7z"/>
<path d="M1222 1685 c5 -5 -6 -17 -23 -27 -19 -12 -29 -24 -25 -33 5 -15 -5
-28 -47 -58 -25 -18 -43 -57 -26 -57 5 0 9 7 9 16 0 11 6 15 20 11 11 -3 18 0
17 6 -1 6 10 13 25 16 20 4 25 10 19 19 -4 7 -6 24 -4 36 4 19 16 26 74 40 39
9 74 14 79 11 5 -3 12 -1 15 5 5 8 -11 10 -47 9 -29 -2 -62 1 -73 6 -11 4 -17
4 -13 0z"/>
<path d="M1295 1595 c-49 -13 -86 -24 -81 -24 5 -1 1 -10 -8 -20 -17 -18 -15
-18 46 1 62 20 148 58 148 65 0 5 -6 3 -105 -22z"/>
<path d="M1039 1598 c-10 -35 8 -62 32 -47 10 6 10 9 2 9 -7 0 -13 5 -13 10 0
6 7 10 16 10 8 0 12 5 9 10 -5 9 -44 15 -46 8z"/>
<path d="M1515 1579 c-67 -33 -116 -71 -132 -103 -13 -27 -9 -25 33 18 27 27
68 57 91 68 23 10 45 23 48 28 8 13 7 13 -40 -11z"/>
<path d="M1988 1546 c-25 -20 -39 -66 -20 -66 4 0 6 -22 5 -49 -2 -28 1 -52 6
-55 5 -3 7 -15 4 -25 -3 -10 0 -22 6 -25 6 -4 11 -1 11 6 1 8 6 6 15 -6 24
-32 17 -9 -10 34 -29 46 -32 62 -8 53 13 -5 15 -3 9 13 -18 44 -24 74 -15 74
5 0 9 11 9 24 0 13 6 26 13 29 6 2 10 7 7 10 -3 3 -17 -5 -32 -17z"/>
<path d="M1050 1485 c-6 -14 -14 -36 -20 -50 -13 -34 0 -31 30 7 17 22 21 33
12 36 -10 3 -10 7 -1 18 8 10 9 14 0 14 -6 0 -16 -11 -21 -25z"/>
<path d="M1096 1475 c-9 -14 -14 -30 -11 -35 3 -5 -3 -22 -14 -37 -28 -40 -37
-75 -17 -67 17 7 17 7 21 42 1 13 8 29 15 35 10 10 12 8 7 -5 -4 -10 -2 -18 3
-18 6 0 10 13 10 29 0 16 4 41 10 55 12 33 -3 34 -24 1z"/>
<path d="M1755 1289 c-49 -10 -100 -18 -113 -19 -26 0 -56 -25 -48 -39 4 -6
19 -6 39 0 19 5 45 9 58 9 13 -1 75 2 137 6 121 7 130 16 52 47 -31 12 -46 12
-125 -4z"/>
<path d="M1189 1246 c-35 -24 -49 -44 -49 -68 0 -6 9 -3 20 7 10 9 26 15 34
12 10 -4 13 -1 10 7 -5 13 14 15 219 20 47 2 82 8 90 15 10 10 7 12 -13 10
-14 -2 -32 1 -40 6 -8 5 -64 11 -125 13 -104 3 -112 2 -146 -22z"/>
<path d="M1539 1218 c-1 -7 -2 -28 -2 -45 -1 -18 -5 -33 -9 -33 -5 0 -6 -28
-2 -62 3 -35 6 -67 6 -73 1 -5 -2 -25 -6 -42 -6 -27 -4 -33 8 -33 20 0 20 -10
0 -25 -17 -12 -12 -55 6 -55 28 0 38 70 22 139 -7 30 -7 51 -1 63 11 21 10
127 -2 134 -5 2 -6 11 -3 18 3 8 1 17 -5 21 -6 3 -11 0 -12 -7z"/>
<path d="M1614 1174 c-9 -34 12 -71 60 -106 54 -39 58 -27 7 20 -43 39 -50 52
-28 52 7 0 18 9 25 20 12 20 12 21 -18 5 l-31 -16 7 26 c4 15 2 25 -5 25 -6 0
-14 -12 -17 -26z"/>
<path d="M1728 1192 c-22 -4 -23 -35 -3 -52 8 -7 15 -10 15 -6 0 3 11 1 25 -4
16 -6 34 -6 51 0 18 7 33 6 55 -6 17 -8 33 -13 37 -10 3 3 0 6 -7 6 -8 0 -11
7 -7 15 6 17 -26 55 -46 55 -7 -1 1 -12 17 -25 36 -30 23 -33 -22 -6 -37 23
-91 39 -115 33z m89 -39 c2 -6 -5 -13 -17 -16 -12 -3 -20 0 -20 7 0 26 29 33
37 9z"/>
<path d="M1399 1179 c36 -14 20 -20 -24 -8 -34 10 -44 8 -99 -20 l-61 -31 33
30 c40 37 25 40 -18 4 -22 -19 -28 -29 -19 -34 6 -5 8 -13 4 -21 -5 -8 0 -7
14 3 12 9 31 14 41 11 13 -3 18 0 17 13 -1 9 4 19 12 22 8 2 11 0 8 -6 -4 -5
-1 -15 7 -21 18 -15 66 3 66 24 0 17 9 19 30 5 13 -9 12 -12 -4 -25 -14 -11
-16 -15 -5 -15 19 1 54 28 46 36 -4 4 -2 13 4 21 6 7 10 13 8 14 -2 0 -22 2
-44 4 -33 3 -36 2 -16 -6z"/>
<path d="M2120 1117 c0 -7 4 -17 8 -22 14 -16 32 -90 32 -129 0 -29 -8 -45
-35 -73 -35 -36 -47 -83 -22 -83 8 0 8 -3 -2 -9 -16 -10 -43 -3 -36 9 3 5 1
11 -4 14 -5 3 -11 -8 -13 -24 -4 -25 -1 -30 17 -30 26 0 55 30 86 90 20 39 23
58 21 138 -1 51 -6 101 -12 112 -12 22 -40 27 -40 7z"/>
<path d="M996 1092 c-2 -4 -9 -44 -16 -89 -9 -69 -8 -87 5 -115 11 -24 13 -26
9 -8 -4 17 3 11 21 -19 14 -24 24 -49 22 -55 -2 -6 -11 3 -20 19 -22 42 -21
26 3 -30 16 -37 24 -46 42 -43 12 2 23 9 26 16 3 9 -3 11 -22 6 -29 -7 -32 -3
-14 26 10 16 10 24 0 38 -45 63 -52 79 -52 130 0 29 6 68 14 87 14 32 12 45
-5 45 -4 0 -10 -4 -13 -8z"/>
<path d="M2090 1081 c-14 -27 -13 -30 8 -28 14 1 17 7 14 24 -5 28 -8 29 -22
4z"/>
<path d="M1688 926 c3 -37 0 -47 -24 -70 -16 -14 -23 -26 -16 -26 8 0 27 13
43 30 24 23 28 34 23 57 -4 15 -12 33 -18 40 -8 9 -10 2 -8 -31z"/>
<path d="M1374 923 c-10 -16 -17 -31 -16 -35 1 -5 -2 -8 -7 -8 -5 0 -13 -10
-17 -22 -3 -12 -15 -31 -25 -42 -11 -11 -19 -28 -19 -37 0 -10 -5 -19 -10 -21
-6 -2 -13 -17 -15 -33 -5 -27 -4 -28 7 -10 6 11 14 22 18 25 11 9 70 98 70
107 0 4 4 14 9 22 8 13 12 13 28 0 16 -13 17 -13 4 4 -8 10 -11 28 -7 47 7 37
3 38 -20 3z"/>
<path d="M1428 884 c-4 -3 -4 -12 -2 -18 6 -16 56 -8 51 8 -4 12 -39 20 -49
10z"/>
<path d="M1603 883 c-25 -10 -12 -23 22 -23 24 0 35 5 35 15 0 15 -31 19 -57
8z"/>
<path d="M1565 840 c-3 -5 -19 -10 -36 -10 -16 0 -29 -4 -29 -10 0 -5 5 -10
10 -10 7 0 8 -13 5 -34 -5 -22 -3 -36 6 -41 17 -11 37 20 31 50 -6 33 25 34
37 1 5 -13 16 -26 25 -29 10 -4 13 -1 9 9 -3 7 -9 14 -13 14 -10 0 -25 40 -22
58 3 14 -14 16 -23 2z"/>
<path d="M1730 843 c1 -5 32 -28 70 -52 38 -25 67 -48 64 -53 -6 -9 10 -11 19
-2 10 10 -45 60 -73 67 -14 3 -35 15 -47 27 -23 21 -33 25 -33 13z"/>
<path d="M1098 755 c-6 -7 32 -158 42 -165 4 -3 17 -24 29 -47 11 -23 26 -45
32 -48 5 -4 -1 15 -14 41 -13 27 -31 77 -40 110 -16 66 -40 118 -49 109z"/>
<path d="M2013 728 c-4 -18 -6 -36 -5 -40 1 -5 -3 -8 -9 -8 -5 0 -8 -4 -5 -8
3 -5 -4 -38 -14 -73 -23 -76 -24 -82 -5 -49 14 23 14 19 11 -50 -3 -64 -1 -80
19 -115 13 -22 35 -70 50 -106 25 -64 27 -66 95 -99 38 -18 67 -37 65 -41 -3
-4 3 -6 13 -5 9 0 16 -4 15 -11 -2 -7 7 -17 18 -24 15 -8 19 -8 15 0 -10 16 7
13 30 -5 16 -13 16 -15 2 -10 -25 7 -22 -1 3 -15 15 -8 19 -8 15 0 -12 18 2
13 71 -29 37 -22 74 -40 82 -40 9 0 -4 11 -29 24 -25 12 -85 47 -135 77 -49
31 -121 71 -158 89 -48 24 -72 41 -78 59 -9 25 -14 36 -41 99 -7 15 -18 34
-24 42 -16 20 -20 186 -5 224 6 16 16 48 21 71 5 23 12 49 16 58 4 12 1 17
-10 17 -11 0 -19 -12 -23 -32z"/>
<path d="M1562 712 c-7 -5 -10 -16 -6 -25 4 -12 1 -17 -10 -17 -9 0 -16 -4
-16 -10 0 -6 20 -7 48 -4 26 2 66 7 90 9 23 3 42 1 42 -4 0 -5 8 -7 19 -4 10
3 22 0 25 -6 4 -6 16 -11 26 -11 10 0 21 -6 23 -12 3 -7 4 -1 3 14 -1 36 -33
59 -64 47 -17 -7 -35 -3 -67 11 -44 20 -75 26 -61 13 4 -5 12 -9 17 -9 5 -1
13 -2 18 -3 5 0 12 -8 15 -16 5 -13 -3 -15 -44 -13 -50 3 -61 13 -38 36 14 14
0 16 -20 4z"/>
<path d="M1445 697 c-11 -7 -23 -16 -27 -21 -4 -6 -16 -6 -31 1 -21 10 -28 9
-40 -5 -27 -32 -28 -52 -4 -52 13 0 28 5 35 12 7 7 22 13 35 13 13 0 26 9 31
21 5 12 21 26 35 32 22 8 23 10 6 10 -11 1 -29 -5 -40 -11z"/>
<path d="M1518 583 c-17 -7 -35 -10 -42 -6 -8 4 -8 3 0 -6 6 -7 18 -13 25 -14
8 -2 19 -6 26 -10 7 -5 17 0 24 10 8 14 20 17 49 15 21 -2 41 1 44 7 4 6 1 11
-6 12 -73 4 -95 2 -120 -8z"/>
<path d="M1132 493 c-1 -56 -8 -102 -17 -120 -15 -31 -46 -100 -64 -149 -13
-32 -41 -55 -201 -161 -52 -34 -91 -63 -86 -63 11 0 183 110 245 157 25 19 50
48 57 66 7 18 20 52 28 77 9 25 24 59 32 75 11 22 14 53 12 120 l-4 90 -2 -92z"/>
<path d="M1991 357 c-1 -31 -20 -71 -64 -135 l-29 -44 26 17 c14 10 26 14 26
9 0 -8 -36 -116 -50 -149 -18 -44 -20 -57 -8 -53 18 6 118 275 117 313 0 16
-4 39 -9 50 -8 18 -9 17 -9 -8z"/>
<path d="M1131 304 c-1 -65 92 -304 118 -304 12 0 -12 82 -33 115 -9 13 -16
31 -16 40 0 17 25 21 35 5 3 -5 12 -10 18 -10 7 0 4 5 -5 10 -25 15 -86 103
-103 147 l-14 38 0 -41z"/>
<path d="M1405 275 c28 -14 60 -25 72 -25 12 0 33 -4 48 -10 43 -16 78 -20
123 -14 66 10 50 20 -25 16 -56 -3 -84 2 -157 27 -108 37 -129 39 -61 6z"/>
<path d="M2019 223 c-1 -16 -7 -38 -14 -55 -5 -12 -2 -18 6 -18 11 0 11 -3 -1
-10 -8 -5 -10 -10 -4 -10 5 0 19 7 30 15 14 11 15 14 3 9 -10 -3 -20 -1 -24 5
-3 6 -2 11 2 11 5 0 9 14 9 30 1 17 0 30 -2 30 -2 0 -4 -3 -5 -7z"/>
<path d="M1029 139 c-1 -8 -1 -17 0 -21 0 -4 -3 -18 -7 -30 -5 -13 -6 -34 -2
-48 5 -19 9 -10 14 38 5 35 5 66 2 69 -3 4 -7 0 -7 -8z"/>
<path d="M1584 127 c-7 -19 1 -60 13 -64 6 -2 10 14 10 37 0 39 -12 54 -23 27z"/>
<path d="M2127 76 c5 -60 9 -76 20 -76 4 0 8 27 8 59 0 46 -4 61 -16 64 -13 4
-15 -4 -12 -47z"/>
<path d="M983 62 c-19 -12 -21 -62 -2 -62 6 0 9 10 8 23 -2 12 0 28 4 35 9 14
7 15 -10 4z"/>
<path d="M2248 38 c27 -29 59 -41 69 -26 3 7 1 8 -5 4 -7 -4 -12 -2 -12 5 0 7
-3 9 -6 6 -4 -4 -21 3 -38 15 l-31 22 23 -26z"/>
<path d="M1590 21 c0 -5 -10 -12 -22 -14 -13 -3 -8 -4 11 -4 33 2 59 27 27 27
-9 0 -16 -4 -16 -9z"/>
</g>
</svg>
